<svg width="1024" height="1024" viewBox="0 0 1024 1024" fill="none" xmlns="http://www.w3.org/2000/svg">
<rect width="1024" height="1024" fill="url(#paint0_linear_21_759)"/>
<path d="M602.416 872.046C602.326 874.509 602.206 876.507 602.191 878.505C602.153 883.33 599.57 885.89 594.973 886.509C590.329 887.134 587.087 884.815 585.717 880.189C585.397 879.11 585.096 877.841 584.349 877.103C578.915 871.735 573.37 866.481 566.939 860.306C561.264 866.273 555.415 872.608 549.36 878.739C543.583 884.587 538.887 884.542 533.074 878.719C527.199 872.832 521.45 866.818 515.22 860.423C508.323 867.245 501.868 873.629 495.413 880.014C494.111 881.303 492.839 882.625 491.51 883.886C486.208 888.917 480.983 888.622 476.05 882.96C470.481 876.567 464.963 870.128 459.039 863.264C454.186 868.121 449.546 872.766 444.904 877.411C443.02 879.296 441.447 881.957 439.172 882.871C436.2 884.065 432.351 884.868 429.493 883.943C427.493 883.295 425.391 879.531 425.265 877.06C424.189 855.933 423.611 834.781 422.777 813.641C421.047 769.807 411.575 727.468 396.5 686.479C386.11 658.226 374.002 630.606 362.816 602.642C361.521 599.405 359.718 598.544 356.453 598.694C350.8 598.954 345.124 598.862 339.462 598.733C329.882 598.513 322.752 592.874 322.736 585.671C322.72 578.42 329.641 572.953 339.38 572.544C340.711 572.489 342.046 572.511 343.378 572.511C455.512 572.51 567.646 572.503 679.78 572.541C683.093 572.542 686.5 572.595 689.699 573.336C696.374 574.882 700.732 580.198 700.598 585.902C700.469 591.394 696.155 596.77 689.642 597.849C683.783 598.819 677.703 598.823 671.739 598.649C667.961 598.538 666.275 599.853 664.756 603.246C646.302 644.45 629.394 686.199 617.6 729.899C607.851 766.021 604.053 802.847 603.328 840.108C603.124 850.601 602.736 861.09 602.416 872.046ZM403.094 657.678C404.15 660.421 405.207 663.165 406.82 667.351C414.618 643.808 421.93 621.734 429.439 599.067C411.969 599.067 395.639 599.067 379 599.067C387.021 618.636 394.882 637.812 403.094 657.678ZM534.693 645.66C531.87 654.172 529.251 662.758 526.16 671.171C523.626 678.066 526.809 684.119 529.558 689.484C532.172 694.583 537.452 698.316 541.161 702.23C546.586 697.147 551.743 692.241 556.986 687.428C560.324 684.364 560.949 680.887 559.49 676.649C555.812 665.965 552.318 655.217 548.743 644.497C546.654 638.237 544.551 631.982 541.951 624.224C539.293 632.114 537.136 638.518 534.693 645.66ZM474.735 671.773C474.058 673.822 472.934 675.843 472.806 677.926C472.601 681.255 471.787 685.627 473.485 687.781C477.735 693.172 483.251 697.564 488.45 702.541C493.34 697.311 498.972 692.242 503.331 686.248C505.742 682.933 507.936 677.524 506.934 673.993C502.284 657.601 496.483 641.534 490.658 624.043C485.181 640.513 480.108 655.767 474.735 671.773ZM588.757 695.01C591.032 697.116 593.307 699.222 596.866 702.516C602.424 695.697 607.673 689.258 613.748 681.805C608.27 665.353 602.09 646.789 595.91 628.226C589.287 645.033 583.569 661.529 578.486 678.22C577.706 680.784 579.221 684.64 580.818 687.179C582.622 690.046 585.718 692.101 588.757 695.01ZM644.964 608.932C646.306 605.788 647.648 602.644 649.165 599.092C633.509 599.092 618.558 599.092 603.095 599.092C609.87 619.373 616.486 639.178 623.382 659.823C630.791 642.326 637.715 625.975 644.964 608.932ZM448.248 688.224C455.363 684.246 455.139 678.93 452.448 671.926C447.569 659.225 443.705 646.134 439.407 633.209C438.861 631.569 438.253 629.95 437.673 628.321C430.553 646.609 424.463 664.807 418.516 683.051C418.196 684.034 418.705 685.779 419.461 686.541C424.24 691.361 429.197 696.003 434.348 700.947C438.673 696.983 443.193 692.841 448.248 688.224ZM557.313 619.526C561.095 630.856 564.877 642.185 569.109 654.861C575.54 635.546 581.574 617.425 587.7 599.024C574.981 599.024 563.084 599.024 550.566 599.024C552.826 605.905 554.942 612.346 557.313 619.526ZM447.3 606.367C452.531 622.067 457.761 637.767 462.992 653.466C463.326 653.477 463.66 653.488 463.993 653.5C469.989 635.472 475.985 617.445 482.101 599.056C469.539 599.056 457.525 599.056 445.007 599.056C445.779 601.526 446.416 603.562 447.3 606.367ZM502.105 607.637C506.67 621.355 511.235 635.073 516.285 650.246C522.341 632.195 527.904 615.614 533.473 599.015C522.146 599.015 510.917 599.015 499.212 599.015C500.176 601.899 501.008 604.393 502.105 607.637ZM472.168 855.377C476.259 860.131 480.35 864.885 484.476 869.681C491.137 862.905 497.406 856.529 503.271 850.563C498.042 845.222 492.67 839.736 487.721 834.682C482.46 839.686 477.103 844.892 471.608 849.949C469.626 851.773 469.853 853.221 472.168 855.377ZM506.909 722.855C509.472 725.574 512.035 728.292 514.597 731.01C514.313 730.3 514.029 729.589 513.746 728.879C519.63 723.848 525.515 718.817 531.531 713.673C525.774 707.607 520.437 701.984 514.849 696.096C509.112 702.267 503.755 708.029 497.479 714.778C500.837 717.608 503.636 719.968 506.909 722.855ZM556.699 762.785C554.917 764.663 553.135 766.542 550.911 768.886C557.267 774.627 563.264 780.044 568.486 784.76C573.411 779.948 578.804 774.68 584.372 769.239C579.012 763.622 573.442 757.786 567.859 751.935C564.077 755.596 560.636 758.927 556.699 762.785ZM518.29 836.453C522.821 832.172 527.353 827.892 532.183 823.329C525.707 817.304 520.027 812.018 515.032 807.37C509.87 812.202 504.219 817.491 497.925 823.382C502.843 828.079 507.763 832.485 512.311 837.246C514.593 839.634 516.059 839.288 518.29 836.453ZM469.268 723.29C472.035 720.265 474.803 717.24 477.864 713.894C471.787 708.208 466.038 702.829 460.095 697.269C455.011 701.947 449.675 706.857 444.073 712.012C450.512 718.131 456.606 723.921 462.978 729.977C464.736 728.114 466.765 725.964 469.268 723.29ZM466.916 780.941C470.781 776.868 474.646 772.796 478.867 768.347C473.171 763.06 467.819 758.092 462.142 752.823C456.929 758.442 451.427 764.371 446.28 769.918C451.68 775.395 456.768 780.557 462.252 786.121C463.551 784.664 464.983 783.057 466.916 780.941ZM558.891 720.87C561.808 723.934 564.724 726.997 566.565 728.931C573.08 723.049 579.082 717.631 585.326 711.995C579.751 706.714 574.468 701.707 570.436 697.887C564.285 703.325 558.375 708.549 552.277 713.939C554.517 716.294 556.456 718.332 558.891 720.87ZM530.088 790.081C528.516 791.724 526.944 793.367 525.649 794.721C531.729 800.607 537.401 806.098 542.856 811.378C547.495 806.829 552.457 801.964 557.577 796.943C551.669 791.409 545.8 785.911 540.111 780.581C537.335 783.202 533.959 786.39 530.088 790.081ZM546.912 729.845C545.377 728.109 543.842 726.372 542.307 724.636C542.548 725.172 542.789 725.708 543.03 726.245C537.175 731.315 531.32 736.386 525.145 741.733C530.877 747.104 536.131 752.027 540.198 755.837C545.648 750.99 551.325 745.943 557.198 740.721C553.764 737.097 550.574 733.732 546.912 729.845ZM491.733 781.997C490.283 781.681 488.094 780.598 487.498 781.171C482.252 786.213 477.289 791.549 473.011 795.999C478.296 801.492 483.198 806.586 486.848 810.379C492.449 805.427 498.26 800.29 505.416 793.964C500.762 789.919 496.495 786.21 491.733 781.997ZM477.86 735.891C476.229 737.674 474.597 739.457 472.818 741.401C478.589 746.945 483.925 752.07 488.146 756.125C493.399 751.457 498.81 746.648 504.487 741.603C498.681 736.191 493.148 731.036 487.391 725.671C484.651 728.606 481.494 731.985 477.86 735.891ZM528.391 853.179C532.379 857.593 536.367 862.007 540.161 866.206C546.478 859.897 551.734 854.649 556.757 849.632C551.739 844.717 546.586 839.67 540.77 833.973C536.587 838.426 532.24 843.255 527.653 847.843C525.708 849.788 525.902 851.138 528.391 853.179ZM461.108 839.558C466.388 834.134 471.668 828.71 476.836 823.402C471.542 818.047 466.683 813.131 462.525 808.925C456.948 814.04 451.364 819.161 445.521 824.519C449.556 829.198 453.283 833.629 457.157 837.928C458.008 838.872 459.379 839.346 461.108 839.558ZM432.956 757.798C434.126 758.055 435.925 758.929 436.371 758.474C441.711 753.037 446.85 747.402 452.033 741.829C445.256 735.349 438.836 729.21 432.37 723.027C426.876 725.609 425.704 729.859 427.781 736.174C430.003 742.933 431.015 750.091 432.956 757.798ZM580.785 826.772C581.713 825.719 582.641 824.665 583.939 823.191C578.404 818.034 573.215 813.201 568.346 808.665C563.403 813.516 558.349 818.476 553.136 823.592C558.163 828.521 563.319 833.578 568.947 839.097C572.728 835.163 576.512 831.226 580.785 826.772ZM501.795 766.081C501.484 767.422 500.454 769.444 500.977 769.997C505.501 774.779 510.306 779.296 514.301 783.187C519.656 778.268 524.909 773.443 530.594 768.22C525.077 763.194 519.802 758.39 514.891 753.917C511.061 757.469 506.696 761.517 501.795 766.081ZM591.527 755.223C592.428 756.04 593.329 756.857 594.635 758.041C596.63 749.308 598.041 741.102 600.471 733.21C602.092 727.949 600.485 725.09 597.392 723.477C590.827 729.63 584.683 735.39 578.352 741.324C582.596 745.807 586.812 750.262 591.527 755.223ZM436.899 786.479C437.577 793.849 438.256 801.218 438.904 808.254C442.924 804.605 446.901 800.995 451.554 796.773C447.237 792.667 443.068 788.658 438.794 784.765C438.572 784.563 437.444 785.356 436.899 786.479ZM584.632 803.27C585.689 804.255 586.746 805.241 588.464 806.842C589.154 799.602 589.765 793.206 590.412 786.425C586.36 790.286 582.808 793.671 578.967 797.332C580.738 799.186 582.432 800.96 584.632 803.27ZM443.944 845.618C443.237 844.407 442.531 843.196 441.824 841.984C441.479 842.362 441.133 842.74 440.788 843.118C440.788 848.519 440.788 853.921 440.788 858.693C443.427 856.379 446.1 854.036 448.989 851.504C447.425 849.672 445.939 847.93 443.944 845.618ZM580.719 847.518C578.728 850.555 580.383 853.288 586.73 856.965C586.73 851.971 586.73 847.235 586.73 842.499C586.262 842.164 585.794 841.83 585.326 841.496C583.948 843.345 582.569 845.195 580.719 847.518Z" fill="white"/>
<path d="M912.425 242.942C912.425 271.583 912.425 299.734 912.425 328.301C895.396 328.301 878.67 328.301 861.244 328.301C861.244 307.272 861.244 286.077 861.244 264.732C627.994 264.732 395.442 264.732 162.425 264.732C162.425 286.284 162.425 307.54 162.425 329.061C145.19 329.061 128.416 329.061 111.01 329.061C111.01 327.436 111.01 325.838 111.01 324.24C111.01 296.576 110.995 268.912 111.016 241.249C111.029 223.512 121.59 213.001 139.354 213.001C387.162 212.999 634.969 213.001 882.777 213.001C902.348 213.001 912.358 222.941 912.425 242.942Z" fill="white"/>
<path d="M170.418 729.134C242.39 729.133 313.869 729.175 385.348 729.026C389.711 729.017 391.311 730.217 392.036 734.537C394.49 749.146 397.406 763.678 400.123 778.243C400.239 778.869 400.137 779.535 400.137 780.658C398.36 780.658 396.727 780.658 395.094 780.658C309.952 780.659 224.811 780.662 139.669 780.656C121.484 780.655 111.019 770.281 111.015 752.23C111.001 684.584 111.004 616.937 111 549.29C111 547.498 111 545.706 111 543.646C128.178 543.646 144.931 543.646 162.184 543.646C162.184 605.317 162.184 666.854 162.184 729.135C165.088 729.135 167.507 729.135 170.418 729.134Z" fill="white"/>
<path d="M861.1 695.884C861.1 645.253 861.1 595.123 861.1 544.724C878.205 544.724 894.958 544.724 912.173 544.724C912.257 546.389 912.406 547.975 912.406 549.561C912.419 617.039 912.432 684.516 912.413 751.994C912.408 770.359 902.008 780.649 883.487 780.651C799.515 780.664 715.543 780.657 631.572 780.657C629.973 780.657 628.375 780.657 626.223 780.657C630.062 763.734 633.703 747.525 637.507 731.354C637.719 730.453 639.188 729.47 640.232 729.233C641.817 728.872 643.543 729.13 645.209 729.13C715.185 729.13 785.162 729.13 855.139 729.131C856.943 729.131 858.747 729.131 861.1 729.131C861.1 717.955 861.1 707.169 861.1 695.884Z" fill="white"/>
<path d="M85.584 360H102.382V468.96C102.382 474.408 102.231 478.797 101.928 482.126C101.777 485.304 100.944 489.087 99.431 493.476C98.069 497.865 95.9503 501.572 93.075 504.599C87.173 510.955 79.1523 514.133 69.013 514.133C57.5117 514.133 48.5073 510.425 42 503.01L51.307 489.844C56.4523 495.443 62.203 498.243 68.559 498.243C73.2503 498.243 77.0337 496.805 79.909 493.93C83.6923 490.147 85.584 481.975 85.584 469.414V360Z" fill="white"/>
<path d="M412.081 420.42C412.289 421.207 412.639 423.034 412.855 424.481C413.071 425.928 413.397 428.572 413.576 430.357C413.756 432.142 413.89 435.567 413.877 437.971C413.862 440.375 413.667 443.933 413.445 445.878C413.222 447.823 412.692 451.043 412.26 453.029C411.832 455.014 411.103 457.864 410.637 459.363C410.173 460.861 409.197 463.554 408.467 465.351C407.737 467.148 406.582 469.741 405.899 471.117C405.216 472.49 403.799 475.02 402.749 476.735C401.699 478.449 399.876 481.152 398.696 482.742C397.517 484.332 395.552 486.752 394.33 488.124C393.108 489.493 390.907 491.742 389.436 493.118C387.966 494.497 385.349 496.695 383.619 498.004C381.888 499.31 379.262 501.119 377.783 502.021C376.305 502.923 373.549 504.423 371.663 505.353C369.778 506.283 367.096 507.468 365.707 507.985C364.319 508.502 362.231 509.264 361.073 509.679C359.914 510.095 356.3 511.001 353.042 511.696C349.789 512.391 346.972 512.87 346.782 512.763C346.596 512.658 345.444 512.666 344.227 512.783C343.011 512.899 340.182 512.972 337.942 512.948C335.701 512.922 332.067 512.676 329.862 512.402C327.658 512.13 324.372 511.601 322.563 511.226C320.753 510.847 318.046 510.162 316.548 509.696C315.049 509.233 312.207 508.192 310.23 507.386C308.252 506.577 305.126 505.122 303.282 504.152C301.438 503.181 298.529 501.456 296.818 500.319C295.104 499.181 292.363 497.158 290.722 495.823C289.081 494.488 286.441 492.091 284.855 490.498C283.269 488.906 281.149 486.611 280.146 485.399C279.142 484.186 277.385 481.821 276.239 480.143C275.097 478.464 273.392 475.679 272.455 473.96C271.515 472.242 270.145 469.391 269.408 467.634C268.671 465.876 267.71 463.355 267.275 462.032C266.842 460.708 266.027 457.991 265.468 455.991C264.779 453.517 264.309 451.105 264 448.455C263.75 446.31 263.467 443.083 263.371 441.281C263.276 439.48 263.226 436.781 263.259 435.286C263.293 433.79 263.468 431.183 263.65 429.493C263.829 427.803 264.239 425.015 264.56 423.298C264.882 421.58 265.691 418.309 266.36 416.027C267.031 413.745 268.16 410.477 268.874 408.768C269.588 407.058 270.811 404.38 271.59 402.823C272.37 401.266 274.486 397.799 276.293 395.125C278.1 392.447 280.862 388.845 282.427 387.117C283.991 385.389 286.365 382.98 287.701 381.763C289.037 380.546 291.78 378.305 293.8 376.783C295.82 375.261 299.119 373.089 301.133 371.956C303.148 370.823 306.102 369.307 307.698 368.586C309.293 367.863 312.502 366.609 314.826 365.798C318.5 364.516 319.891 364.179 325.458 363.229C329.084 362.613 333.226 362.082 334.999 362.013C336.725 361.945 340.117 361.984 342.538 362.102C344.96 362.223 348.48 362.562 350.358 362.861C352.236 363.157 355.773 363.936 358.217 364.591C360.661 365.243 364.426 366.498 366.585 367.383C368.742 368.266 372.017 369.787 373.862 370.764C375.707 371.743 379.102 373.846 381.405 375.443C383.711 377.039 386.671 379.288 387.981 380.437C389.294 381.586 391.476 383.668 392.824 385.06C394.173 386.452 396.086 388.582 397.077 389.797C398.072 391.011 399.819 393.378 400.961 395.057C402.107 396.735 403.81 399.52 404.75 401.239C405.692 402.956 407.209 406.184 408.121 408.405C409.035 410.624 410.213 413.918 410.741 415.716C411.269 417.515 411.871 419.633 412.081 420.42ZM373.179 447.019C367.845 447.93 360.325 449.158 356.468 449.747C352.612 450.339 347.408 451.083 344.906 451.402C342.402 451.719 338.295 452.179 335.78 452.429C333.262 452.676 329.196 452.993 326.741 453.135C324.287 453.276 320.451 453.407 318.223 453.426C315.99 453.443 312.25 453.347 309.907 453.214C307.565 453.081 303.422 452.665 300.7 452.286C297.979 451.908 293.774 451.175 291.357 450.656C288.939 450.138 284.881 449.12 282.342 448.397C279.8 447.674 276.166 446.568 274.266 445.939C272.362 445.312 270.679 444.822 270.519 444.853C270.333 444.889 270.616 446.892 271.274 450.271C271.887 453.413 272.777 457.01 273.426 458.954C274.035 460.779 275.155 463.641 275.914 465.313C276.674 466.985 278.059 469.694 278.995 471.332C279.931 472.97 281.446 475.382 282.36 476.693C283.275 478.004 284.956 480.182 286.095 481.531C287.234 482.882 289.268 485.059 290.609 486.368C291.954 487.679 293.996 489.514 295.147 490.448C296.298 491.382 297.625 492.264 298.092 492.404C298.559 492.548 299.989 492.829 301.27 493.03C302.549 493.233 304.878 493.368 306.444 493.33C308.007 493.294 310.723 492.981 312.476 492.636C314.23 492.294 316.866 491.584 318.338 491.063C319.807 490.542 322.251 489.53 323.767 488.817C325.282 488.103 328.349 486.471 330.581 485.187C332.813 483.907 336.5 481.638 338.776 480.148C341.049 478.661 343.979 476.667 345.283 475.72C346.588 474.771 348.556 473.413 349.659 472.698C350.76 471.985 352.692 470.789 353.955 470.043C355.215 469.298 357.231 468.171 358.432 467.537C359.632 466.906 362.168 465.686 364.071 464.828C365.971 463.97 369.234 462.649 371.323 461.895C373.409 461.143 376.721 460.122 378.679 459.629L382.241 458.73C382.622 455.159 382.775 452.624 382.824 450.794C382.874 448.964 382.908 446.996 382.898 446.417L382.882 445.366L373.179 447.019ZM379.192 426.108C378.575 426.213 376.925 426.333 375.528 426.376C374.129 426.423 371.458 426.258 369.59 426.011C367.721 425.762 364.398 425.047 362.21 424.42C360.017 423.792 356.386 422.529 354.141 421.612C351.892 420.697 347.813 418.863 345.072 417.535C342.331 416.209 337.659 413.786 334.693 412.152C331.727 410.516 325.334 406.894 320.488 404.105C315.641 401.313 309.937 398.089 307.812 396.942C305.684 395.792 302.458 394.173 300.642 393.345C298.825 392.513 296.115 391.466 294.621 391.011C293.125 390.557 291.159 390.196 290.252 390.207L288.602 390.228C285.739 393.431 283.753 396.008 282.34 398.022C280.93 400.033 278.977 403.192 278.003 405.036C277.03 406.881 275.603 409.933 274.837 411.821C274.067 413.707 272.975 416.968 272.406 419.064C271.837 421.161 271.142 424.205 270.864 425.833C270.582 427.458 270.235 430.574 270.094 432.753C269.951 434.931 269.87 436.909 269.92 437.149C269.969 437.404 271.76 438.163 274.262 438.99C276.606 439.764 280.819 441.063 283.626 441.882C286.433 442.698 290.742 443.796 293.203 444.322C295.662 444.847 299.518 445.522 301.769 445.817C304.017 446.113 308.048 446.464 310.721 446.596C313.394 446.728 317.667 446.78 320.22 446.713C322.771 446.646 327.128 446.416 329.899 446.204C332.671 445.989 337.519 445.516 340.676 445.15C343.83 444.782 349.504 444.028 353.286 443.469C357.064 442.913 365.136 441.596 371.219 440.542C377.293 439.491 382.317 438.559 382.399 438.472C382.464 438.39 382.021 435.53 381.417 432.121L380.311 425.923L379.192 426.108ZM380.856 466.058C380.818 465.867 380.261 465.927 379.309 466.23C378.49 466.492 376.425 467.18 374.719 467.762C373.012 468.345 370.178 469.424 368.417 470.165C366.66 470.904 363.931 472.182 362.352 473.001C360.776 473.82 358.511 475.065 357.323 475.762C356.136 476.463 354.265 477.619 353.161 478.334C352.061 479.048 350.09 480.409 348.786 481.358C347.482 482.308 344.071 484.595 341.202 486.441C338.337 488.287 334.28 490.748 332.19 491.911C330.099 493.071 327.396 494.485 326.183 495.053C324.97 495.62 322.78 496.534 321.313 497.079C319.849 497.626 316.901 498.48 314.764 498.981C312.628 499.478 310.892 499.959 310.91 500.051C310.931 500.142 312.337 500.755 314.034 501.415C315.737 502.076 318.841 503.073 320.934 503.625C323.028 504.179 326.138 504.861 327.847 505.138C329.556 505.413 332.461 505.728 334.301 505.833C336.142 505.937 338.93 505.993 340.492 505.95C342.058 505.91 345.185 505.643 347.446 505.356C349.974 505.035 353.157 504.414 355.708 503.746C357.992 503.147 360.815 502.302 361.985 501.866C364.089 501.086 364.137 501.043 366.218 498.258C367.378 496.708 369.175 494.056 370.211 492.365C371.248 490.674 372.672 488.163 373.372 486.784C374.073 485.408 375.079 483.316 375.61 482.136C376.142 480.958 377.083 478.608 377.706 476.913C378.327 475.222 379.303 472.152 379.877 470.097C380.448 468.042 380.888 466.223 380.856 466.058ZM378.39 419.465C377.933 417.457 377.672 416.491 377.518 416.024C377.361 415.558 376.648 413.6 375.935 411.669C375.219 409.742 373.731 406.241 372.629 403.89C371.524 401.542 369.91 398.335 369.041 396.766C368.17 395.199 366.731 392.772 365.841 391.372C364.955 389.974 363.271 387.525 362.103 385.933C360.936 384.34 358.959 381.883 357.712 380.471C356.465 379.059 354.857 377.342 354.142 376.654C353.427 375.966 351.706 374.48 350.319 373.352C348.931 372.22 346.701 370.726 345.368 370.029C344.031 369.33 342.423 368.72 341.795 368.674C341.162 368.626 339.097 368.622 337.203 368.66C335.307 368.701 331.968 368.94 329.786 369.194C327.6 369.449 324.459 370.004 322.806 370.428C321.149 370.85 318.333 371.685 316.547 372.277C314.758 372.872 311.929 373.978 310.256 374.731C308.583 375.487 305.813 376.912 304.104 377.901C302.392 378.888 299.631 380.698 297.968 381.922L294.942 384.151C298.682 385.405 301.101 386.341 302.727 387.041C304.352 387.741 308.019 389.54 310.877 391.037C313.732 392.533 317.603 394.672 319.475 395.791C321.348 396.909 326.306 399.779 330.496 402.166C334.683 404.551 339.922 407.457 342.134 408.62C344.347 409.784 347.649 411.445 349.472 412.311C351.296 413.177 354.477 414.569 356.544 415.406C358.609 416.24 361.882 417.399 363.815 417.979C365.749 418.558 368.788 419.224 370.573 419.46C372.355 419.696 374.843 419.792 376.102 419.676L378.39 419.465ZM398.087 471.139C398.029 470.901 397.602 470.24 397.141 469.668C396.677 469.096 395.508 468.097 394.54 467.45C393.571 466.799 391.997 466.073 391.043 465.838C390.085 465.601 388.961 465.393 388.544 465.372C387.831 465.34 387.745 465.516 387.146 468.228C386.794 469.819 385.935 472.929 385.237 475.138C384.54 477.347 383.294 480.777 382.471 482.757C381.648 484.738 380.122 487.981 379.082 489.962C378.042 491.942 377.277 493.651 377.384 493.753C377.491 493.855 378.897 492.913 380.511 491.657C382.123 490.401 384.696 488.154 386.226 486.665C387.756 485.175 389.779 483.051 390.722 481.946C391.665 480.842 393.731 478.056 395.312 475.753C396.897 473.454 398.144 471.377 398.087 471.139ZM394.617 399.305C394.138 396.896 394.083 396.786 392.029 394.244C390.875 392.814 389.274 390.959 388.473 390.123C387.675 389.285 385.866 387.538 384.458 386.242C383.05 384.943 379.624 382.355 376.844 380.487C374.064 378.619 370.296 376.375 368.47 375.501C366.645 374.626 363.876 373.447 362.318 372.881C360.758 372.316 359.376 371.908 359.245 371.976C359.113 372.044 359.933 373.066 361.069 374.253C362.203 375.437 364.836 378.649 366.913 381.388C368.994 384.126 371.582 387.82 372.662 389.595C373.745 391.369 375.396 394.297 376.334 396.099C377.272 397.902 378.544 400.498 379.166 401.866C379.788 403.234 380.808 405.673 381.436 407.29C382.063 408.904 383.085 411.752 383.707 413.617C384.326 415.482 384.854 417.107 384.877 417.225C384.9 417.344 385.391 417.272 385.973 417.062C386.553 416.856 387.856 416.067 388.866 415.311C389.877 414.551 391.341 413.158 392.123 412.214C393.253 410.848 393.682 409.976 394.224 407.957C394.598 406.561 394.95 404.596 395.004 403.593C395.058 402.589 394.883 400.659 394.617 399.305ZM405.344 440.994C404.347 441.101 400.371 441.804 396.505 442.557L389.477 443.93C389.572 447.059 389.505 449.813 389.391 452.071C389.278 454.328 389.099 456.731 388.994 457.413L388.806 458.654C391.776 459.215 393.289 459.597 394.084 459.863C394.879 460.132 396.444 460.92 397.56 461.611C398.675 462.302 400.053 463.288 400.621 463.797L401.654 464.724C403.467 459.825 404.416 456.761 404.932 454.759C405.447 452.757 406.084 449.789 406.342 448.165C406.603 446.541 406.891 444.222 406.982 443.007L407.151 440.799L405.344 440.994ZM405.833 423.142C405.587 422.032 405.228 420.543 405.036 419.837C404.844 419.131 404.337 417.47 403.908 416.146C403.478 414.821 402.695 412.706 402.165 411.44C401.634 410.176 401.134 409.153 401.055 409.165C400.976 409.177 400.685 409.881 400.413 410.725C400.139 411.57 399.367 413.165 398.698 414.27C398.026 415.376 396.803 416.991 395.979 417.859C395.156 418.727 393.592 420.094 392.509 420.897C391.424 421.702 389.701 422.76 388.678 423.251L386.82 424.139C388.221 431.328 388.701 434.315 388.793 435.417L388.96 437.418C406.397 434.013 407.079 433.841 407.112 433.347C407.133 433.054 406.953 431.092 406.714 428.988C406.475 426.883 406.08 424.252 405.833 423.142Z" fill="#FF681D"/>
<path d="M591.798 362V423.517H669.432V362H686.23V513.409H669.432V439.407H591.798V513.409H575V362H591.798Z" fill="white"/>
<path d="M863.798 512.765H847V355L965.04 478.715V361.356H981.838V519.575L863.798 395.86V512.765Z" fill="white"/>
<defs>
<linearGradient id="paint0_linear_21_759" x1="512" y1="0" x2="512" y2="1024" gradientUnits="userSpaceOnUse">
<stop stop-color="#4A4A4A"/>
<stop offset="1"/>
</linearGradient>
</defs>
</svg>
