<svg width="1024" height="1024" viewBox="0 0 1024 1024" fill="none" xmlns="http://www.w3.org/2000/svg">
<path d="M602.416 872.046C602.326 874.509 602.207 876.507 602.191 878.505C602.154 883.33 599.571 885.89 594.973 886.509C590.329 887.134 587.088 884.815 585.717 880.189C585.398 879.11 585.097 877.841 584.349 877.103C578.916 871.735 573.371 866.481 566.939 860.306C561.265 866.273 555.416 872.608 549.36 878.739C543.583 884.587 538.887 884.542 533.075 878.719C527.199 872.832 521.451 866.818 515.22 860.423C508.324 867.245 501.868 873.629 495.414 880.014C494.111 881.303 492.839 882.625 491.51 883.886C486.208 888.917 480.983 888.622 476.051 882.96C470.481 876.567 464.963 870.128 459.039 863.264C454.187 868.121 449.546 872.766 444.905 877.411C443.021 879.296 441.447 881.957 439.172 882.871C436.2 884.065 432.351 884.868 429.494 883.943C427.493 883.295 425.391 879.531 425.265 877.06C424.19 855.933 423.611 834.781 422.777 813.641C421.048 769.807 411.575 727.468 396.501 686.479C386.11 658.226 374.002 630.606 362.816 602.642C361.522 599.405 359.719 598.544 356.453 598.694C350.801 598.954 345.124 598.862 339.462 598.733C329.883 598.513 322.753 592.874 322.736 585.671C322.72 578.42 329.642 572.953 339.381 572.544C340.712 572.489 342.046 572.511 343.379 572.511C455.513 572.51 567.647 572.503 679.781 572.541C683.094 572.542 686.501 572.595 689.699 573.336C696.374 574.882 700.732 580.198 700.598 585.902C700.469 591.394 696.155 596.77 689.642 597.849C683.784 598.819 677.704 598.823 671.739 598.649C667.962 598.538 666.275 599.853 664.756 603.246C646.303 644.45 629.395 686.199 617.601 729.899C607.852 766.021 604.054 802.847 603.329 840.108C603.124 850.601 602.737 861.09 602.416 872.046ZM403.094 657.678C404.151 660.421 405.207 663.165 406.82 667.351C414.619 643.808 421.931 621.734 429.439 599.067C411.97 599.067 395.64 599.067 379.001 599.067C387.022 618.636 394.882 637.812 403.094 657.678ZM534.693 645.66C531.87 654.172 529.251 662.758 526.16 671.171C523.626 678.066 526.81 684.119 529.559 689.484C532.172 694.583 537.452 698.316 541.162 702.23C546.586 697.147 551.743 692.241 556.986 687.428C560.324 684.364 560.949 680.887 559.491 676.649C555.812 665.965 552.319 655.217 548.743 644.497C546.655 638.237 544.551 631.982 541.952 624.224C539.294 632.114 537.137 638.518 534.693 645.66ZM474.735 671.773C474.058 673.822 472.935 675.843 472.807 677.926C472.602 681.255 471.787 685.627 473.485 687.781C477.735 693.172 483.251 697.564 488.451 702.541C493.341 697.311 498.973 692.242 503.332 686.248C505.743 682.933 507.936 677.524 506.935 673.993C502.285 657.601 496.483 641.534 490.658 624.043C485.181 640.513 480.109 655.767 474.735 671.773ZM588.758 695.01C591.033 697.116 593.308 699.222 596.866 702.516C602.425 695.697 607.673 689.258 613.748 681.805C608.271 665.353 602.091 646.789 595.91 628.226C589.288 645.033 583.569 661.529 578.487 678.22C577.706 680.784 579.222 684.64 580.819 687.179C582.623 690.046 585.718 692.101 588.758 695.01ZM644.964 608.932C646.306 605.788 647.648 602.644 649.165 599.092C633.51 599.092 618.558 599.092 603.096 599.092C609.871 619.373 616.487 639.178 623.383 659.823C630.792 642.326 637.715 625.975 644.964 608.932ZM448.249 688.224C455.363 684.246 455.139 678.93 452.449 671.926C447.569 659.225 443.705 646.134 439.407 633.209C438.862 631.569 438.253 629.95 437.674 628.321C430.553 646.609 424.463 664.807 418.517 683.051C418.196 684.034 418.706 685.779 419.462 686.541C424.24 691.361 429.197 696.003 434.348 700.947C438.674 696.983 443.193 692.841 448.249 688.224ZM557.313 619.526C561.096 630.856 564.878 642.185 569.11 654.861C575.541 635.546 581.574 617.425 587.701 599.024C574.981 599.024 563.084 599.024 550.567 599.024C552.827 605.905 554.942 612.346 557.313 619.526ZM447.301 606.367C452.531 622.067 457.762 637.767 462.992 653.466C463.326 653.477 463.66 653.488 463.994 653.5C469.99 635.472 475.985 617.445 482.102 599.056C469.539 599.056 457.526 599.056 445.007 599.056C445.78 601.526 446.416 603.562 447.301 606.367ZM502.105 607.637C506.671 621.355 511.236 635.073 516.285 650.246C522.341 632.195 527.904 615.614 533.473 599.015C522.147 599.015 510.918 599.015 499.213 599.015C500.176 601.899 501.009 604.393 502.105 607.637ZM472.169 855.377C476.26 860.131 480.351 864.885 484.477 869.681C491.138 862.905 497.406 856.529 503.272 850.563C498.043 845.222 492.67 839.736 487.722 834.682C482.461 839.686 477.103 844.892 471.609 849.949C469.627 851.773 469.854 853.221 472.169 855.377ZM506.91 722.855C509.472 725.574 512.035 728.292 514.598 731.01C514.314 730.3 514.03 729.589 513.746 728.879C519.631 723.848 525.515 718.817 531.531 713.673C525.774 707.607 520.438 701.984 514.849 696.096C509.112 702.267 503.755 708.029 497.48 714.778C500.837 717.608 503.637 719.968 506.91 722.855ZM556.7 762.785C554.918 764.663 553.136 766.542 550.911 768.886C557.268 774.627 563.265 780.044 568.486 784.76C573.411 779.948 578.804 774.68 584.372 769.239C579.012 763.622 573.442 757.786 567.859 751.935C564.078 755.596 560.636 758.927 556.7 762.785ZM518.29 836.453C522.822 832.172 527.353 827.892 532.183 823.329C525.708 817.304 520.028 812.018 515.033 807.37C509.871 812.202 504.22 817.491 497.926 823.382C502.843 828.079 507.763 832.485 512.312 837.246C514.593 839.634 516.059 839.288 518.29 836.453ZM469.268 723.29C472.036 720.265 474.803 717.24 477.864 713.894C471.787 708.208 466.039 702.829 460.095 697.269C455.011 701.947 449.675 706.857 444.073 712.012C450.512 718.131 456.606 723.921 462.979 729.977C464.737 728.114 466.765 725.964 469.268 723.29ZM466.916 780.941C470.781 776.868 474.646 772.796 478.868 768.347C473.172 763.06 467.82 758.092 462.143 752.823C456.929 758.442 451.428 764.371 446.281 769.918C451.68 775.395 456.768 780.557 462.253 786.121C463.551 784.664 464.984 783.057 466.916 780.941ZM558.892 720.87C561.808 723.934 564.724 726.997 566.565 728.931C573.081 723.049 579.083 717.631 585.326 711.995C579.752 706.714 574.468 701.707 570.437 697.887C564.285 703.325 558.376 708.549 552.277 713.939C554.518 716.294 556.456 718.332 558.892 720.87ZM530.089 790.081C528.517 791.724 526.945 793.367 525.65 794.721C531.73 800.607 537.402 806.098 542.856 811.378C547.496 806.829 552.457 801.964 557.577 796.943C551.67 791.409 545.801 785.911 540.111 780.581C537.336 783.202 533.959 786.39 530.089 790.081ZM546.912 729.845C545.377 728.109 543.843 726.372 542.308 724.636C542.549 725.172 542.79 725.708 543.031 726.245C537.176 731.315 531.32 736.386 525.146 741.733C530.878 747.104 536.132 752.027 540.198 755.837C545.649 750.99 551.325 745.943 557.199 740.721C553.764 737.097 550.575 733.732 546.912 729.845ZM491.734 781.997C490.283 781.681 488.095 780.598 487.499 781.171C482.252 786.213 477.29 791.549 473.012 795.999C478.297 801.492 483.198 806.586 486.848 810.379C492.449 805.427 498.26 800.29 505.416 793.964C500.762 789.919 496.495 786.21 491.734 781.997ZM477.861 735.891C476.229 737.674 474.598 739.457 472.818 741.401C478.59 746.945 483.925 752.07 488.146 756.125C493.399 751.457 498.81 746.648 504.488 741.603C498.681 736.191 493.148 731.036 487.392 725.671C484.651 728.606 481.495 731.985 477.861 735.891ZM528.392 853.179C532.379 857.593 536.367 862.007 540.161 866.206C546.479 859.897 551.734 854.649 556.758 849.632C551.739 844.717 546.586 839.67 540.771 833.973C536.588 838.426 532.241 843.255 527.653 847.843C525.709 849.788 525.903 851.138 528.392 853.179ZM461.108 839.558C466.389 834.134 471.669 828.71 476.836 823.402C471.543 818.047 466.683 813.131 462.526 808.925C456.949 814.04 451.364 819.161 445.521 824.519C449.556 829.198 453.284 833.629 457.158 837.928C458.008 838.872 459.379 839.346 461.108 839.558ZM432.957 757.798C434.127 758.055 435.925 758.929 436.371 758.474C441.711 753.037 446.851 747.402 452.034 741.829C445.257 735.349 438.837 729.21 432.37 723.027C426.877 725.609 425.704 729.859 427.781 736.174C430.004 742.933 431.015 750.091 432.957 757.798ZM580.786 826.772C581.714 825.719 582.642 824.665 583.94 823.191C578.404 818.034 573.216 813.201 568.347 808.665C563.403 813.516 558.35 818.476 553.137 823.592C558.163 828.521 563.32 833.578 568.948 839.097C572.729 835.163 576.512 831.226 580.786 826.772ZM501.795 766.081C501.485 767.422 500.454 769.444 500.977 769.997C505.502 774.779 510.306 779.296 514.302 783.187C519.657 778.268 524.909 773.443 530.595 768.22C525.077 763.194 519.803 758.39 514.891 753.917C511.061 757.469 506.696 761.517 501.795 766.081ZM591.528 755.223C592.429 756.04 593.33 756.857 594.636 758.041C596.631 749.308 598.041 741.102 600.472 733.21C602.092 727.949 600.485 725.09 597.392 723.477C590.828 729.63 584.684 735.39 578.353 741.324C582.596 745.807 586.813 750.262 591.528 755.223ZM436.899 786.479C437.578 793.849 438.256 801.218 438.904 808.254C442.924 804.605 446.902 800.995 451.554 796.773C447.237 792.667 443.069 788.658 438.795 784.765C438.573 784.563 437.444 785.356 436.899 786.479ZM584.633 803.27C585.69 804.255 586.746 805.241 588.464 806.842C589.155 799.602 589.765 793.206 590.412 786.425C586.36 790.286 582.809 793.671 578.967 797.332C580.738 799.186 582.433 800.96 584.633 803.27ZM443.945 845.618C443.238 844.407 442.531 843.196 441.825 841.984C441.479 842.362 441.134 842.74 440.788 843.118C440.788 848.519 440.788 853.921 440.788 858.693C443.428 856.379 446.101 854.036 448.989 851.504C447.426 849.672 445.939 847.93 443.945 845.618ZM580.719 847.518C578.728 850.555 580.384 853.288 586.73 856.965C586.73 851.971 586.73 847.235 586.73 842.499C586.262 842.164 585.794 841.83 585.326 841.496C583.948 843.345 582.57 845.195 580.719 847.518Z" fill="#151515"/>
<path d="M882.777 213C902.348 213.001 912.358 222.941 912.425 242.942C912.425 271.583 912.425 529.934 912.425 558.5H912.407C912.42 622.998 912.431 687.496 912.413 751.994C912.408 770.359 902.008 780.649 883.487 780.652C799.516 780.664 715.543 780.657 631.571 780.657H626.223C630.062 763.734 633.704 747.525 637.508 731.354C637.72 730.454 639.188 729.47 640.232 729.233C641.817 728.873 643.543 729.13 645.209 729.13H861.1V544.724H861.244V264.732H162.426V553.125H162.184V729.135C165.088 729.135 167.507 729.135 170.419 729.134C242.39 729.133 313.869 729.175 385.348 729.026C389.711 729.017 391.311 730.218 392.036 734.538C394.49 749.147 397.406 763.678 400.123 778.244C400.24 778.869 400.138 779.535 400.138 780.659H395.094C309.952 780.659 224.81 780.662 139.669 780.657C121.484 780.655 111.018 770.28 111.015 752.23C111.001 684.583 111.004 616.937 111 549.29C111 547.499 111 545.706 111 543.646H111.01V324.24C111.01 296.576 110.995 268.912 111.016 241.248C111.029 223.512 121.59 213.001 139.354 213C387.162 212.999 634.97 213 882.777 213Z" fill="#151515"/>
</svg>
