<svg width="1024" height="1024" viewBox="0 0 1024 1024" fill="none" xmlns="http://www.w3.org/2000/svg">
<path fill-rule="evenodd" clip-rule="evenodd" d="M170.5 52.2C183.96 52.08 196.66 53.16 204.5 55.12C211.38 56.84 224.2 60.58 233 63.44C241.8 66.28 256.2 71.7 265 75.48C273.8 79.24 290 87.28 301 93.34C312 99.4 333.6 112.7 349 122.9C364.4 133.1 387.8 149.82 401 160.04C420.5 175.14 425.56 178.18 428 176.32C429.64 175.06 435.5 171.3 441 167.98C446.5 164.66 457.3 159.92 465 157.46C477.16 153.6 483.36 153 512 153C540.64 153 546.84 153.6 559 157.46C566.7 159.92 577.5 164.66 583 167.98C588.5 171.3 594.36 175.06 596 176.32C598.44 178.18 603.5 175.14 623 160.04C636.2 149.82 659.6 133.1 675 122.92C690.4 112.72 711.54 99.66 722 93.92C732.46 88.18 748.64 80.12 758 76.02C767.36 71.94 782.2 66.26 791 63.42C799.8 60.58 812.62 56.84 819.5 55.12C826.76 53.3 840.58 52 852.5 52C869.84 52 875.46 52.86 889 57.6C897.8 60.7 909.04 65.96 914 69.32C918.96 72.68 927.38 80.28 932.74 86.22C938.1 92.14 945.2 102.4 948.52 109C951.84 115.6 956.28 125.94 958.38 132C960.48 138.06 963.58 149.3 965.26 157C966.96 164.7 968.84 182.24 969.44 196C970.3 215.34 969.76 224.84 967.08 238C965.16 247.34 961.44 259.72 954 276H981C998.48 276 1009.84 276.88 1013.24 278.5C1016.12 279.88 1019.72 283.48 1021.24 286.5C1023.46 290.92 1024 308.58 1024 376C1024 443.42 1023.46 461.08 1021.24 465.5C1019.72 468.52 1016.12 472.12 1013.24 473.5C1010.24 474.92 1000.28 476 972 476V716C972 888.74 971.38 957.26 969.76 960.5C968.54 962.98 965.62 966.56 963.26 968.46C959.26 971.7 932.54 971.92 512 971.92C91.46 971.92 64.74 971.7 60.74 968.46C58.38 966.56 55.46 962.98 54.24 960.5C52.62 957.26 52 888.74 52 476H34C23.72 476 13.76 474.92 10.76 473.5C7.88 472.12 4.28 468.52 2.76 465.5C0.54 461.08 0 443.42 0 376C0 312.92 0.62 290.7 2.5 286.76C3.88 283.88 7.48 280.28 10.5 278.76C14.36 276.82 24.04 276 70 276L65.22 265.5C62.58 259.72 58.98 248.02 57.22 239.5C55.44 230.98 54.02 215.68 54.04 205.5C54.06 195.32 54.98 180.7 56.08 173C57.2 165.3 59.52 153.14 61.26 146C63 138.84 68.22 124.9 72.88 115C77.9 104.34 85.36 92.58 91.18 86.16C96.58 80.18 105.5 72.42 111 68.88C116.5 65.36 127.3 60.2 135 57.44C146.46 53.3 152.9 52.36 170.5 52.2ZM132.42 102.5C127.78 105.52 120.88 112.28 117.08 117.5C113.28 122.72 107.88 133.08 105.08 140.5C102.28 147.92 98.64 161.88 96.98 171.5C95.32 181.12 93.98 197.1 94 207C94.02 216.9 95.24 229.5 96.72 235C98.18 240.5 101.26 248.6 103.52 253C105.8 257.4 111.12 264.36 115.34 268.48L123 275.96L355 275C333.3 263.8 315.74 256.02 302 250.46C288.24 244.92 266.2 237.06 253 233C233.78 227.08 227.84 224.36 223.22 219.32C218.24 213.88 217.6 211.9 218.6 205C219.34 199.94 221.64 195.36 224.88 192.5C228.1 189.66 232.6 188 237 188C240.84 188 256.82 192.16 272.5 197.26C288.18 202.34 312.7 211.44 327 217.48C341.3 223.52 362.68 233.3 374.5 239.22C386.32 245.16 396.68 250 397.5 250.02C398.32 250.02 399.56 243.04 400.24 234.52C400.9 225.98 401.8 217.72 402.24 216.16C402.68 214.48 396.02 207.64 386 199.52C376.64 191.94 360.44 179.56 350 172.02C339.56 164.5 321.56 152.36 310 145.04C298.44 137.74 277.3 126.04 263 119.04C248.7 112.06 228 103.48 217 99.98C202.12 95.26 192.14 93.42 178 92.82C166.4 92.32 155.46 92.98 149.92 94.5C144.92 95.88 137.06 99.48 132.42 102.5ZM803 101.22C794.2 104.1 775.3 112.18 761 119.16C746.7 126.16 725.54 137.82 714 145.1C702.44 152.38 684.44 164.5 674 172.02C663.54 179.56 647.34 191.94 638 199.52C627.98 207.64 621.32 214.48 621.76 216.16C622.2 217.72 623.1 225.98 623.76 234.52C624.44 243.04 625.68 250.02 626.5 250.02C627.32 250 637.68 245.16 649.5 239.22C661.32 233.3 682.7 223.52 697 217.48C711.3 211.44 735.82 202.34 751.5 197.26C767.18 192.16 783.14 188 787 188C791.4 188 795.9 189.66 799.12 192.5C802.36 195.36 804.66 199.94 805.4 205C806.4 211.9 805.76 213.88 800.78 219.32C796.16 224.36 790.22 227.08 771 233C757.8 237.06 735.74 244.92 722 250.46C708.24 256.02 690.7 263.8 683 267.78L669 275L901 275.96C912.9 264.36 918.4 256.94 920.9 252C923.4 247.04 926.6 238.04 928.02 232C929.72 224.62 930.2 213.1 929.48 197C928.84 183.02 926.74 166.74 924.44 158C922.28 149.74 918.18 138.06 915.36 132C912.52 125.94 906.78 117.08 902.6 112.3C898.32 107.38 890.2 101.34 884 98.42C875.14 94.24 869.48 93.14 855 92.72C845.1 92.42 832.94 93.04 828 94.08C823.04 95.12 811.8 98.34 803 101.22ZM461 201.88C457.7 203.9 452.7 208.12 449.92 211.26C447.12 214.42 443.62 220.6 442.14 225C440.42 230.1 439.8 238.06 440.44 247C440.98 254.7 442.9 264.38 444.72 268.5L448 276H576C581.86 263.22 582.88 255.64 582.94 242.86C583 226.38 582.5 223.96 577.5 216.36C574.48 211.76 568.62 205.78 564.5 203.08C560.38 200.38 551.6 196.78 545 195.08C537.46 193.14 524.82 192.04 511 192.12C498.22 192.2 484.4 193.52 478 195.24C471.94 196.88 464.3 199.88 461 201.88ZM40 436H382V316H40V436ZM422 436H602V316H422V436ZM642 436H984V316H642V436ZM92 932H422V476H92V932ZM462 932H562V476H462V932ZM602 932H932V476H602V932Z" fill="#495057"/>
</svg>
