<svg width="1024" height="1024" viewBox="0 0 1024 1024" fill="none" xmlns="http://www.w3.org/2000/svg">
<path fill-rule="evenodd" clip-rule="evenodd" d="M589.655 0.0423726C638.875 -0.157627 644.355 0.182373 666.655 4.82237C679.855 7.56237 695.375 11.1624 701.155 12.8224C708.055 14.8024 713.055 17.7224 715.715 21.3424C717.955 24.3624 719.775 29.5424 719.755 32.8424C719.735 36.7624 710.475 55.4624 666.335 134.842L675.495 139.002C680.775 141.402 688.715 147.762 694.235 154.002C699.515 159.962 705.155 168.902 706.755 173.842C708.375 178.782 709.715 188.242 709.735 194.842C709.755 204.442 708.455 209.482 696.655 233.142L712.655 243.882C721.455 249.802 739.495 265.482 752.755 278.742C769.915 295.902 781.255 309.462 792.155 325.842C800.555 338.482 812.335 359.202 818.295 371.842C824.275 384.482 831.975 403.402 835.415 413.842C838.855 424.282 843.415 441.842 845.535 452.842C847.655 463.842 850.135 480.722 851.035 490.362C851.915 500.002 852.875 507.862 853.155 507.862C853.435 507.842 866.935 499.042 883.155 488.262C904.755 473.942 916.135 467.722 925.655 465.022C935.475 462.242 942.075 461.642 952.655 462.602C962.095 463.442 970.735 465.802 979.155 469.842C986.035 473.142 995.695 479.902 1000.66 484.842C1005.62 489.782 1012.36 499.462 1015.66 506.342C1021 517.502 1021.66 520.902 1021.7 537.842C1021.72 548.822 1020.58 560.222 1019 564.842C1017.5 569.242 1014.1 576.282 1011.46 580.482C1008.82 584.682 948.515 642.742 877.435 709.482C781.615 799.462 745.175 832.482 736.435 837.222C729.955 840.742 718.795 845.002 711.655 846.702C700.555 849.342 677.035 849.782 401.655 849.842L406.715 857.342C409.495 861.462 411.755 866.862 411.715 869.342C411.675 871.822 410.375 876.322 408.815 879.342C407.235 882.362 375.075 915.642 268.655 1021.76L250.655 1021.8L126.255 897.322C33.495 804.482 1.535 771.322 0.555 766.842C-0.185 763.542 -0.185 758.602 0.555 755.842C1.315 752.982 31.555 721.182 71.275 681.462C110.995 641.742 142.795 611.502 145.655 610.742C148.415 610.002 153.135 609.962 156.155 610.622C159.175 611.302 164.575 614.422 174.655 623.322L208.655 593.402C227.355 576.942 249.415 558.902 257.655 553.302C265.915 547.682 281.655 538.782 292.655 533.522C303.655 528.262 316.815 522.802 331.175 518.842L332.415 495.842C333.095 483.202 335.435 463.842 337.635 452.842C339.835 441.842 344.455 424.282 347.895 413.842C351.335 403.402 359.035 384.482 365.015 371.842C370.975 359.202 382.755 338.482 391.155 325.842C402.055 309.462 413.395 295.902 430.555 278.742C443.815 265.482 461.855 249.802 486.655 233.142L480.095 220.002C474.755 209.282 473.555 204.522 473.595 194.342C473.635 187.102 475.275 177.422 477.515 171.342C480.175 164.082 484.655 157.742 492.015 150.762C497.875 145.222 506.035 139.602 517.655 135.842L490.635 87.3424C471.355 52.7224 463.615 36.9824 463.635 32.3424C463.655 27.9824 465.475 23.9624 469.155 20.1424C473.695 15.4224 478.835 13.4824 498.655 8.98237C511.855 5.98237 525.795 2.78237 529.655 1.88237C533.515 0.982373 560.515 0.162373 589.655 0.0423726ZM550.655 40.0624C541.855 41.1424 529.935 43.1224 524.155 44.4424L513.655 46.8424L556.995 124.842H626.315C659.775 64.4024 669.315 46.6224 669.075 46.3424C668.855 46.0824 660.555 44.4624 650.655 42.7424C640.755 41.0224 617.815 39.2624 599.655 38.8424C581.515 38.4224 559.455 38.9824 550.655 40.0624ZM567.655 245.682C562.695 246.582 553.255 248.862 546.655 250.762C540.055 252.642 527.455 257.702 518.655 262.002C509.855 266.282 495.015 275.542 485.655 282.542C476.315 289.542 461.595 302.822 452.955 312.062C444.335 321.282 430.955 338.282 423.235 349.842C415.535 361.402 405.375 378.942 400.675 388.842C395.995 398.742 389.415 415.402 386.075 425.842C382.735 436.282 378.575 451.822 376.835 460.342C375.075 468.862 373.095 483.722 372.395 493.342L371.135 510.842C417.395 511.002 432.315 512.222 443.655 514.582C453.015 516.522 467.415 520.422 475.655 523.242C483.915 526.062 498.315 532.202 507.655 536.882C517.015 541.562 531.855 550.682 540.655 557.122L556.655 568.842L670.655 570.842C690.815 580.322 700.255 586.362 704.655 590.382C709.055 594.402 713.555 597.702 714.655 597.702C715.755 597.722 737.495 584.042 762.975 567.282C803.275 540.802 809.455 536.062 810.515 530.842C811.175 527.542 811.695 517.642 811.675 508.842C811.655 500.042 810.275 483.842 808.615 472.842C806.955 461.842 803.695 446.102 801.375 437.842C799.035 429.602 793.635 414.282 789.375 403.842C785.095 393.402 777.475 377.642 772.415 368.842C767.355 360.042 757.135 344.742 749.695 334.842C742.235 324.942 728.615 309.762 719.395 301.082C710.195 292.422 695.455 280.582 686.655 274.762C677.855 268.942 665.255 261.802 658.655 258.902C652.055 255.982 640.355 251.822 632.655 249.622C624.295 247.262 610.175 245.342 597.655 244.842C586.115 244.402 572.615 244.782 567.655 245.682ZM931.655 505.202C927.795 507.202 880.995 537.522 827.655 572.602L730.655 636.342C730.475 666.302 729.535 670.862 724.475 681.842C721.155 688.982 714.455 699.202 709.555 704.522C703.815 710.782 695.375 716.802 685.755 721.522L670.875 728.842C526.935 729.862 507.355 729.402 502.875 727.422C499.715 726.002 495.875 722.362 494.375 719.342C492.875 716.322 491.655 712.042 491.655 709.842C491.655 707.642 492.875 703.362 494.375 700.342C495.875 697.322 498.795 693.942 500.875 692.842C503.115 691.662 537.235 690.442 584.655 689.842L664.655 688.842C676.855 681.102 682.715 675.302 685.535 670.982C689.735 664.562 690.655 660.742 690.655 649.842C690.655 638.942 689.735 635.122 685.535 628.702C682.715 624.382 676.855 618.602 672.535 615.842C664.695 610.882 664.295 610.842 606.655 609.842C552.375 608.902 548.135 608.562 540.655 604.582C536.255 602.242 525.895 595.482 517.655 589.582C509.395 583.682 495.895 575.562 487.655 571.562C479.395 567.542 465.455 562.002 456.655 559.222C447.855 556.442 432.555 553.082 422.655 551.742C412.215 550.342 396.255 549.802 384.655 550.482C373.655 551.122 356.115 553.822 345.655 556.502C335.215 559.162 320.815 563.982 313.655 567.222C306.515 570.442 294.355 577.122 286.655 582.062C278.955 587.022 259.755 602.262 243.975 615.942C228.195 629.642 212.435 643.282 208.975 646.262L202.655 651.682L360.655 809.902L704.655 808.842C721.155 800.002 768.515 757.042 849.655 681.002C934.235 601.742 976.155 561.122 979.315 555.362C982.855 548.882 983.815 544.422 983.315 536.722C982.875 530.022 980.975 524.182 977.655 519.382C974.915 515.402 969.555 510.042 965.775 507.502C961.375 504.522 955.215 502.622 948.775 502.202C941.875 501.782 936.415 502.742 931.655 505.202ZM99.635 710.842L48.655 761.862L259.655 972.842L362.655 869.842C199.915 707.082 152.195 659.842 151.635 659.842C151.075 659.842 127.675 682.802 99.635 710.842ZM558.655 166.622C550.955 168.082 539.475 170.762 533.155 172.562C525.295 174.802 520.355 177.582 517.595 181.342C515.355 184.362 513.555 189.762 513.595 193.342C513.615 196.922 514.555 201.642 515.655 203.842C516.755 206.042 520.575 209.102 524.155 210.642C529.935 213.122 532.315 212.982 545.655 209.362C557.435 206.142 567.075 205.242 590.655 205.122C615.695 204.982 623.375 205.702 637.155 209.402C652.235 213.462 654.175 213.582 659.655 210.842C662.955 209.202 666.555 206.042 667.655 203.842C668.755 201.642 669.655 196.702 669.655 192.842C669.655 187.922 668.015 184.142 664.155 180.142C659.895 175.722 654.395 173.422 639.655 169.902C627.015 166.862 612.615 165.102 596.655 164.642C582.015 164.222 567.195 164.982 558.655 166.622Z" fill="#495057"/>
<path d="M582.335 272.642C579.955 274.082 576.615 277.442 574.915 280.062C572.895 283.162 571.755 289.762 571.655 298.842L571.515 312.842C555.455 322.142 547.755 328.882 544.055 333.842C540.355 338.782 535.935 347.782 534.235 353.842C532.375 360.462 531.535 368.842 532.155 374.842C532.695 380.342 534.915 388.882 537.055 393.842C539.195 398.782 544.035 406.302 547.795 410.522C551.575 414.742 559.155 420.362 564.655 423.002C570.155 425.642 579.155 428.342 584.655 428.982C590.155 429.642 597.255 431.222 600.435 432.502C603.595 433.782 607.435 437.322 608.935 440.342C610.435 443.362 611.655 447.642 611.655 449.842C611.655 452.042 610.435 456.322 608.935 459.342C607.435 462.362 603.595 466.042 600.435 467.522C597.095 469.082 591.695 469.742 587.655 469.082C583.135 468.362 576.575 464.402 569.155 457.902C560.495 450.322 556.055 447.822 551.155 447.782C547.335 447.742 542.275 449.582 538.855 452.282C535.655 454.782 532.255 459.082 531.295 461.842C530.235 464.842 530.315 469.242 531.495 472.842C532.595 476.142 538.015 483.122 543.575 488.342C549.115 493.562 557.715 499.862 562.695 502.342L571.715 506.842C571.675 529.322 572.775 538.202 574.155 541.082C575.535 543.962 579.135 547.562 582.155 549.082C585.175 550.602 589.455 551.842 591.655 551.842C593.855 551.842 598.135 550.602 601.155 549.082C604.175 547.562 607.775 543.962 609.155 541.082C610.535 538.202 611.695 529.322 611.715 521.342L611.795 506.842C627.855 497.542 635.555 490.782 639.255 485.842C642.955 480.882 647.375 471.882 649.075 465.842C650.935 459.222 651.775 450.842 651.155 444.842C650.615 439.342 648.395 430.782 646.255 425.842C644.115 420.882 639.275 413.382 635.515 409.162C631.735 404.942 624.155 399.322 618.655 396.682C613.155 394.042 604.155 391.342 598.655 390.702C593.155 390.042 586.055 388.462 582.875 387.182C579.715 385.902 575.875 382.362 574.375 379.342C572.875 376.322 571.655 372.042 571.655 369.842C571.655 367.642 572.875 363.362 574.375 360.342C575.875 357.322 580.155 353.582 583.875 352.042C587.955 350.382 593.055 349.802 596.655 350.602C599.955 351.342 606.255 354.782 610.655 358.242C615.055 361.702 621.815 364.962 625.655 365.462C631.355 366.222 633.955 365.262 639.655 360.282C645.475 355.202 646.655 352.822 646.655 346.122C646.655 339.602 645.315 336.682 639.655 330.902C635.815 326.962 627.935 321.282 622.155 318.282L611.655 312.842C611.655 291.922 610.535 283.482 609.155 280.602C607.775 277.722 604.175 274.122 601.155 272.602C598.135 271.082 593.635 269.882 591.155 269.922C588.675 269.942 584.715 271.182 582.335 272.642Z" fill="#495057"/>
</svg>
