<svg width="1024" height="1024" viewBox="0 0 1024 1024" fill="none" xmlns="http://www.w3.org/2000/svg">
<path fill-rule="evenodd" clip-rule="evenodd" d="M511.249 289.73C857.544 289.673 860.412 289.701 866.133 292.555C869.304 294.14 873.685 297.815 879.824 306.015L880.185 509.694C880.516 695.041 880.329 713.791 878.21 718.057C876.928 720.636 874.824 723.951 873.527 725.421C872.229 726.891 868.742 729.312 865.773 730.825C860.513 733.477 850.972 733.549 511.61 733.549C165.733 733.549 162.807 733.52 157.086 730.667C153.915 729.082 149.534 725.407 143.395 717.206V306.015L147.156 300.726C149.231 297.815 153.44 294.155 156.524 292.613C162.043 289.846 167.923 289.802 511.249 289.73ZM167.52 513.052L167.894 708.329H855.325V314.893C237.992 314.244 168.413 314.533 167.851 315.974C167.462 316.968 167.318 405.643 167.52 513.052ZM511.249 340.113C705.517 340.113 741.358 340.43 744.716 342.131C746.892 343.255 750.149 345.69 751.936 347.535C753.839 349.51 756.735 356.341 758.883 363.892C760.915 371.026 764.071 379.457 765.901 382.627C767.731 385.798 772.386 391.519 776.249 395.324C780.111 399.143 787.158 404.173 791.914 406.507C796.67 408.842 803.804 411.393 807.767 412.157C811.73 412.935 817.249 415.039 820.017 416.84C822.798 418.642 826.531 423.037 831.575 433.068V590.154L828.318 596.625C826.53 600.184 822.798 604.58 820.017 606.381C817.249 608.183 811.73 610.287 807.767 611.065C803.804 611.829 796.67 614.38 791.914 616.715C787.158 619.049 780.111 624.079 776.249 627.898C772.386 631.703 767.731 637.424 765.901 640.595C764.071 643.765 760.915 652.196 758.883 659.33C756.735 666.881 753.839 673.712 751.936 675.687C750.149 677.531 746.892 679.967 744.716 681.091C741.358 682.792 705.56 683.109 511.61 683.109C317.659 683.109 281.861 682.792 278.503 681.091C276.327 679.967 273.07 677.531 271.283 675.687C269.38 673.712 266.484 666.881 264.336 659.33C262.304 652.196 259.119 643.765 257.246 640.595C255.387 637.424 251.38 632.293 248.34 629.195C245.313 626.082 239.923 621.701 236.349 619.438C232.79 617.176 226.953 614.438 223.379 613.357C219.819 612.276 214.141 610.662 210.769 609.783C207.396 608.889 202.54 606.324 199.96 604.061C197.179 601.626 194.513 597.374 193.403 593.613C191.947 588.67 191.63 569.675 191.962 507.749C192.38 429.667 192.452 428.154 195.406 424.161C197.063 421.928 200.637 418.627 203.332 416.826C206.042 415.039 211.489 412.935 215.452 412.157C219.416 411.393 226.549 408.842 231.305 406.493C236.061 404.158 243.094 399.129 246.927 395.31C250.761 391.505 255.416 385.798 257.275 382.627C259.119 379.457 262.304 371.026 264.336 363.892C266.368 356.759 268.876 349.625 269.885 348.054C270.908 346.469 273.992 344.048 276.745 342.65C281.443 340.272 295.35 340.128 511.249 340.113ZM285.608 378.304C283.936 383.852 279.858 392.6 276.529 397.759C273.199 402.904 266.844 410.571 262.42 414.78C257.981 418.973 249.507 424.882 243.555 427.88C237.617 430.892 228.999 434.264 224.431 435.374L216.115 437.391V585.831C228.999 588.958 237.617 592.33 243.555 595.342C249.507 598.34 257.981 604.249 262.42 608.442C266.844 612.651 273.199 620.303 276.529 625.462C279.858 630.607 283.936 639.37 285.608 644.918C287.265 650.466 288.865 655.813 289.153 656.808C289.571 658.234 335.299 658.609 511.61 658.609C687.92 658.609 733.648 658.234 734.066 656.808C734.354 655.813 735.954 650.466 737.611 644.918C739.283 639.37 743.362 630.607 746.676 625.462C750.005 620.303 756.346 612.636 760.785 608.414C765.238 604.177 773.712 598.297 779.664 595.299C785.616 592.316 794.22 588.958 798.788 587.848L807.104 585.831V437.391C794.22 434.264 785.616 430.906 779.664 427.923C773.712 424.925 765.238 419.045 760.785 414.808C756.346 410.586 750.005 402.904 746.676 397.759C743.362 392.6 739.283 383.852 737.611 378.304C735.954 372.755 734.354 367.409 734.066 366.414C733.648 364.988 687.906 364.613 511.581 364.613C335.212 364.613 289.499 364.988 289.11 366.414C288.836 367.409 287.265 372.755 285.608 378.304ZM510.889 389.285C519.608 389.213 530.964 390.049 536.109 391.145C541.254 392.24 550.665 395.137 557.006 397.587C563.347 400.037 572.743 404.807 577.888 408.179C583.033 411.566 591.392 418.224 596.436 422.98C601.494 427.736 609.32 437.132 613.816 443.877C618.341 450.65 624.005 461.603 626.47 468.376C628.92 475.106 631.643 484.517 632.522 489.273C633.401 494.029 634.122 504.247 634.122 511.971C634.108 519.696 633.128 530.562 631.946 536.111C630.764 541.659 627.853 551.228 625.49 557.368C623.112 563.507 618.457 572.745 615.113 577.904C611.784 583.049 604.146 592.172 598.165 598.167C592.17 604.148 583.048 611.786 577.903 615.115C572.758 618.458 563.347 623.185 557.006 625.635C550.665 628.085 540.779 630.982 535.028 632.092C529.278 633.201 518.426 634.109 510.889 634.109C503.366 634.109 492.658 633.129 487.11 631.948C481.562 630.751 472.324 627.984 466.574 625.794C460.823 623.589 450.62 618.156 443.875 613.717C437.131 609.264 427.734 601.496 422.979 596.437C418.223 591.393 411.565 583.035 408.178 577.89C404.806 572.745 400.108 563.507 397.73 557.368C395.366 551.228 392.455 541.659 391.273 536.111C390.091 530.562 389.111 519.537 389.111 511.611C389.111 503.685 390.034 492.818 391.158 487.472C392.296 482.125 394.919 473.204 396.995 467.656C399.07 462.107 403.494 453.028 406.809 447.479C410.138 441.931 418.064 432.16 424.405 425.761C430.761 419.362 440.172 411.407 445.317 408.093C450.461 404.764 459.872 400.037 466.213 397.601C472.554 395.165 481.634 392.312 486.389 391.289C491.145 390.251 502.17 389.343 510.889 389.285ZM467.813 423.888C462.365 426.554 454.28 431.656 449.871 435.23C445.461 438.789 438.73 445.606 434.926 450.362C431.107 455.118 426.077 462.9 423.742 467.656C421.393 472.411 418.079 481.808 416.364 488.552C413.813 498.568 413.366 503.555 413.928 515.934C414.447 527.291 415.6 533.949 418.554 542.596C420.716 548.937 424.867 558.002 427.778 562.743C430.689 567.485 436.309 574.849 440.272 579.129C444.236 583.395 452.018 589.88 457.566 593.526C463.115 597.172 473.16 602.116 479.904 604.508C491.232 608.543 493.624 608.875 511.61 608.875C529.595 608.875 531.987 608.543 543.315 604.508C550.06 602.116 560.104 597.172 565.653 593.526C571.201 589.88 578.984 583.395 582.947 579.129C586.91 574.849 592.53 567.485 595.442 562.743C598.353 558.002 602.561 548.937 604.78 542.596C608.441 532.162 608.83 529.207 608.844 511.611C608.859 493.596 608.542 491.247 604.506 479.905C602.114 473.161 597.171 463.116 593.525 457.568C589.879 452.019 583.393 444.237 579.128 440.274C574.847 436.31 567.483 430.69 562.742 427.779C558 424.868 548.935 420.703 542.594 418.541C533.27 415.342 527.895 414.506 514.492 414.102C501.594 413.713 495.685 414.203 487.831 416.322C482.282 417.806 473.275 421.222 467.813 423.888ZM511.465 438.069C513.526 438.04 516.827 439.236 518.815 440.72C520.79 442.219 522.851 445.318 523.369 447.624C524.032 450.52 526.468 453.172 531.296 456.285C535.129 458.749 539.712 462.957 541.47 465.652C543.228 468.333 544.684 472.642 544.713 475.222C544.742 478.291 543.546 481.145 541.225 483.508C538.819 485.944 536.152 487.097 532.939 487.054C529.422 487.01 526.958 485.699 523.499 482.01C520.919 479.271 517.187 476.375 515.212 475.582C512.748 474.602 510.356 474.645 507.646 475.712C505.47 476.576 502.891 478.363 501.925 479.675C500.959 480.986 500.138 484.33 500.095 487.111C500.037 490.57 501.032 493.121 503.28 495.225C505.326 497.127 510.125 498.914 515.933 499.938C521.078 500.845 528.053 503.18 531.425 505.155C534.956 507.215 539.381 511.625 541.874 515.574C544.252 519.336 546.846 525.504 547.638 529.265C548.599 533.829 548.599 538.392 547.638 542.956C546.846 546.718 544.252 552.886 541.874 556.647C539.294 560.726 534.87 565.092 530.907 567.456C526.18 570.266 523.989 572.63 523.341 575.598C522.836 577.904 520.79 581.003 518.815 582.501C516.827 583.986 513.584 585.211 511.61 585.211C509.621 585.211 506.378 583.986 504.404 582.501C502.415 581.003 500.369 577.904 499.85 575.598C499.187 572.702 496.751 570.05 491.923 566.937C488.09 564.473 483.507 560.264 481.749 557.569C479.991 554.889 478.535 550.897 478.506 548.721C478.477 546.53 480.019 542.985 481.936 540.794C484.559 537.811 486.735 536.831 490.742 536.831C494.964 536.831 496.867 537.782 499.879 541.4C501.968 543.922 505.47 546.674 507.646 547.525C510.356 548.591 512.979 548.62 515.933 547.64C518.311 546.847 520.905 544.902 521.698 543.316C522.49 541.731 523.153 538.33 523.182 535.75C523.196 532.709 522.072 530 519.939 527.997C517.893 526.095 513.094 524.308 507.286 523.284C502.127 522.376 495.166 520.042 491.794 518.067C488.263 516.006 483.839 511.597 481.345 507.648C478.967 503.886 476.373 497.718 475.581 493.957C474.62 489.393 474.62 484.829 475.581 480.266C476.373 476.504 478.967 470.336 481.345 466.575C483.925 462.496 488.349 458.13 492.313 455.766C497.039 452.956 499.23 450.592 499.879 447.624C500.383 445.318 502.357 442.234 504.26 440.778C506.162 439.308 509.405 438.083 511.465 438.069Z" fill="#495057"/>
<path d="M44.1844 114.774C3.68797 155.76 0.517441 159.738 0.0562714 170.258C-0.404898 181.24 0.978608 182.969 43.4926 225.512C80.2421 262.262 88.8313 269.439 96.0659 269.554C100.822 269.641 108.287 267.046 112.639 263.818C118.663 259.379 120.566 255.546 120.566 247.879C120.566 239.261 117.51 234.592 99.6688 216.087L78.7721 194.412C277.104 194.527 703.829 193.519 709.133 191.415C713.485 189.685 718.616 186.111 720.547 183.488C722.478 180.865 724.15 174.812 724.236 170.057C724.351 164.205 721.988 159.306 716.944 154.924L709.507 148.439C523.253 148.554 83.5567 147.603 82.375 146.364C81.1644 145.125 89.2637 134.719 100.389 123.219C115.233 107.856 120.594 100.218 120.652 94.3958C120.71 90.0435 118.116 82.8954 114.887 78.5431C110.362 72.4037 106.644 70.6167 98.4294 70.6167C88.5431 70.6167 84.7385 73.7008 44.1844 114.774Z" fill="#495057"/>
<path d="M979.816 908.508C1020.31 867.521 1023.48 863.544 1023.94 853.023C1024.4 842.042 1023.02 840.312 980.507 797.769C943.758 761.02 935.169 753.843 927.934 753.728C923.178 753.641 915.713 756.235 911.361 759.463C905.337 763.902 903.434 767.736 903.434 775.403C903.434 784.021 906.49 788.69 924.331 807.195L945.228 828.87C746.896 828.754 320.171 829.763 314.867 831.867C310.515 833.597 305.384 837.171 303.453 839.794C301.522 842.416 299.85 848.469 299.764 853.225C299.649 859.076 302.012 863.976 307.056 868.357L314.493 874.842C500.747 874.727 940.443 875.678 941.625 876.918C942.836 878.157 934.736 888.562 923.611 900.063C908.767 915.426 903.406 923.064 903.348 928.886C903.29 933.238 905.884 940.386 909.113 944.739C913.638 950.878 917.356 952.665 925.571 952.665C935.457 952.665 939.262 949.581 979.816 908.508Z" fill="#495057"/>
</svg>
